<svg xmlns="http://www.w3.org/2000/svg" xmlns:xlink="http://www.w3.org/1999/xlink" width="184" zoomAndPan="magnify" viewBox="0 0 138 44.999999" height="60" preserveAspectRatio="xMidYMid meet" version="1.0"><defs><g/><clipPath id="b717855f9f"><path d="M 0 0 L 40.226562 0 L 40.226562 38 L 0 38 Z M 0 0 " clip-rule="nonzero"/></clipPath></defs><g clip-path="url(#b717855f9f)"><path fill="#d9d9d9" d="M 26.332031 33.410156 C 34.203125 31.996094 40.226562 25.085938 40.226562 16.835938 C 40.226562 7.578125 32.632812 0.00390625 23.351562 0.00390625 L -0.273438 0.00390625 L 6.476562 6.738281 L 23.351562 6.738281 C 28.921875 6.738281 33.476562 11.28125 33.476562 16.839844 C 33.476562 22.394531 28.921875 26.941406 23.351562 26.941406 L 19.976562 26.941406 L 19.976562 37.222656 L 26.726562 33.332031 C 26.597656 33.359375 26.464844 33.386719 26.332031 33.410156 Z M 26.332031 33.410156 " fill-opacity="1" fill-rule="evenodd"/></g><path fill="#5e17eb" d="M 13.226562 33.675781 C 13.226562 29.183594 13.226562 24.695312 13.226562 20.207031 L 23.351562 20.207031 C 25.207031 20.207031 26.726562 18.691406 26.726562 16.839844 C 26.726562 14.984375 25.207031 13.472656 23.351562 13.472656 L 6.476562 13.472656 C 6.476562 20.207031 6.476562 26.941406 6.476562 33.675781 L 6.476562 44.996094 L 13.226562 41.109375 Z M 13.226562 33.675781 " fill-opacity="1" fill-rule="evenodd"/><g fill="#ffffff" fill-opacity="1"><g transform="translate(50.358861, 28.249713)"><g><path d="M 5.375 -5.703125 L 5.375 0 L 1 0 L 1 -16.0625 L 8.4375 -16.0625 C 10.882812 -16.0625 12.109375 -15.03125 12.109375 -12.96875 L 12.109375 -8.8125 C 12.109375 -7.226562 11.394531 -6.25 9.96875 -5.875 L 12.921875 0 L 8.203125 0 L 5.65625 -5.703125 Z M 7.109375 -12.9375 L 5.375 -12.9375 L 5.375 -8.6875 L 7.109375 -8.6875 C 7.523438 -8.6875 7.734375 -8.867188 7.734375 -9.234375 L 7.734375 -12.390625 C 7.734375 -12.753906 7.523438 -12.9375 7.109375 -12.9375 Z M 7.109375 -12.9375 "/></g></g></g><g fill="#ffffff" fill-opacity="1"><g transform="translate(66.730678, 28.249713)"><g><path d="M 5.375 -3.125 L 10.859375 -3.125 L 10.859375 0 L 1 0 L 1 -16.0625 L 10.640625 -16.0625 L 10.640625 -12.9375 L 5.375 -12.9375 L 5.375 -9.65625 L 9.90625 -9.65625 L 9.90625 -6.53125 L 5.375 -6.53125 Z M 5.375 -3.125 "/></g></g></g><g fill="#ffffff" fill-opacity="1"><g transform="translate(81.475453, 28.249713)"><g><path d="M 7.15625 -3.671875 L 7.15625 -5.953125 C 7.15625 -6.328125 6.945312 -6.515625 6.53125 -6.515625 L 4.125 -6.515625 C 2.894531 -6.515625 2.023438 -6.785156 1.515625 -7.328125 C 1.003906 -7.867188 0.75 -8.644531 0.75 -9.65625 L 0.75 -12.96875 C 0.75 -15.03125 1.96875 -16.0625 4.40625 -16.0625 L 7.828125 -16.0625 C 10.265625 -16.0625 11.484375 -15.03125 11.484375 -12.96875 L 11.484375 -11.03125 L 7.109375 -11.03125 L 7.109375 -12.390625 C 7.109375 -12.753906 6.898438 -12.9375 6.484375 -12.9375 L 5.75 -12.9375 C 5.332031 -12.9375 5.125 -12.753906 5.125 -12.390625 L 5.125 -10.015625 C 5.125 -9.648438 5.332031 -9.46875 5.75 -9.46875 L 8.109375 -9.46875 C 9.347656 -9.46875 10.226562 -9.207031 10.75 -8.6875 C 11.28125 -8.164062 11.546875 -7.40625 11.546875 -6.40625 L 11.546875 -3.109375 C 11.546875 -1.035156 10.328125 0 7.890625 0 L 4.484375 0 C 2.023438 0 0.796875 -1.035156 0.796875 -3.109375 L 0.796875 -5.03125 L 5.1875 -5.03125 L 5.1875 -3.671875 C 5.1875 -3.304688 5.394531 -3.125 5.8125 -3.125 L 6.53125 -3.125 C 6.945312 -3.125 7.15625 -3.304688 7.15625 -3.671875 Z M 7.15625 -3.671875 "/></g></g></g><g fill="#ffffff" fill-opacity="1"><g transform="translate(97.271541, 28.249713)"><g><path d="M 7.15625 -3.671875 L 7.15625 -5.953125 C 7.15625 -6.328125 6.945312 -6.515625 6.53125 -6.515625 L 4.125 -6.515625 C 2.894531 -6.515625 2.023438 -6.785156 1.515625 -7.328125 C 1.003906 -7.867188 0.75 -8.644531 0.75 -9.65625 L 0.75 -12.96875 C 0.75 -15.03125 1.96875 -16.0625 4.40625 -16.0625 L 7.828125 -16.0625 C 10.265625 -16.0625 11.484375 -15.03125 11.484375 -12.96875 L 11.484375 -11.03125 L 7.109375 -11.03125 L 7.109375 -12.390625 C 7.109375 -12.753906 6.898438 -12.9375 6.484375 -12.9375 L 5.75 -12.9375 C 5.332031 -12.9375 5.125 -12.753906 5.125 -12.390625 L 5.125 -10.015625 C 5.125 -9.648438 5.332031 -9.46875 5.75 -9.46875 L 8.109375 -9.46875 C 9.347656 -9.46875 10.226562 -9.207031 10.75 -8.6875 C 11.28125 -8.164062 11.546875 -7.40625 11.546875 -6.40625 L 11.546875 -3.109375 C 11.546875 -1.035156 10.328125 0 7.890625 0 L 4.484375 0 C 2.023438 0 0.796875 -1.035156 0.796875 -3.109375 L 0.796875 -5.03125 L 5.1875 -5.03125 L 5.1875 -3.671875 C 5.1875 -3.304688 5.394531 -3.125 5.8125 -3.125 L 6.53125 -3.125 C 6.945312 -3.125 7.15625 -3.304688 7.15625 -3.671875 Z M 7.15625 -3.671875 "/></g></g></g><g fill="#ffffff" fill-opacity="1"><g transform="translate(113.067628, 28.249713)"><g><path d="M 9.1875 0 L 8.6875 -2.40625 L 4.828125 -2.40625 L 4.3125 0 L 0 0 L 4.125 -16.0625 L 9.46875 -16.0625 L 13.59375 0 Z M 5.5 -5.5 L 8.015625 -5.5 L 6.78125 -11.296875 Z M 5.5 -5.5 "/></g></g></g></svg>